# xmcd
#
# Track frame offsets: 
#        150
#        15910
#        32865
#        62545
#        105550
#        120432
#        144860
#        164940
#        180887
#        197702
#        213737
#        229287
#        244725
#        258030
#        273302
#        286102
#        301790
#        319982
#
# Disc length: 4463 seconds
#
# Revision: 3
# Processed by: cddbd v1.5.2PL0 Copyright (c) Steve Scherf et al.
# Submitted via: ExactAudioCopy v0.95b4
#
DISCID=f3116d12
DTITLE=Grand Funk Railroad - The Best Of Grand Funk Railroad
DYEAR=1996
DGENRE=Rock
TTITLE0=Are You Ready
TTITLE1=Time Machine
TTITLE2=Heartbreaker
TTITLE3=Inside Looking Out
TTITLE4=Sin's A Good Man's Brother
TTITLE5=Closer To Home
TTITLE6=Feelin' Alright
TTITLE7=Gimmie Shelter
TTITLE8=Footstompin' Music
TTITLE9=Rock 'n' Roll Soul
TTITLE10=We're An American Band
TTITLE11=Walk Like A Man
TTITLE12=Bad Time
TTITLE13=Some Kind Of Wonderful
TTITLE14=Loco-Motion
TTITLE15=Shinin' On
TTITLE16=Take Me
TTITLE17=Sally
EXTD=YEAR: 1996
EXTT0=
EXTT1=
EXTT2=
EXTT3=
EXTT4=
EXTT5=
EXTT6=
EXTT7=
EXTT8=
EXTT9=
EXTT10=
EXTT11=
EXTT12=
EXTT13=
EXTT14=
EXTT15=
EXTT16=
EXTT17=
PLAYORDER=
